<?xml version="1.0" encoding="UTF-8"?>
<svg width="11px" height="13px" viewBox="0 0 11 13" version="1.1" xmlns="http://www.w3.org/2000/svg" xmlns:xlink="http://www.w3.org/1999/xlink">
    <!-- Generator: Sketch 43.2 (39069) - http://www.bohemiancoding.com/sketch -->
    <title>lock</title>
    <desc>Created with Sketch.</desc>
    <defs></defs>
    <g id="Symbols" stroke="none" stroke-width="1" fill="none" fill-rule="evenodd">
        <g id="resources-/-icons-/-lock" transform="translate(-2.000000, -1.000000)">
            <g id="lock">
                <rect id="Rectangle-2" x="0" y="0" width="15" height="15"></rect>
                <path d="M5.98793785,3.66332024 C6.32724047,3.18825534 6.86268073,2.95488722 7.49786767,2.95488722 C8.1300289,2.95488722 8.65436487,3.18711122 8.99448537,3.66332126 C9.3477337,4.15791567 9.40406371,4.6642497 9.40505947,6.1741759 C9.40511731,6.26220708 9.40511731,6.26220708 9.40524043,6.3513261 L9.40583747,6.69402737 L5.57658502,6.69402737 L5.57718207,6.3513261 C5.57730518,6.26220708 5.57730518,6.26220708 5.57736303,6.1741759 C5.57835878,4.6642497 5.63468879,4.15791567 5.98793712,3.66332126 L6.26632851,3.86215346 L5.98793785,3.66332024 Z M8.43770332,4.06098667 C8.2355632,3.77796595 7.92201424,3.63909774 7.49786767,3.63909774 C7.06962557,3.63909774 6.74498498,3.78059021 6.54471918,4.06098667 L6.26632851,3.86215346 L6.54471991,4.06098565 C6.32289477,4.3715702 6.26706574,4.80212342 6.26196275,6.00981684 L8.72045974,6.00981684 C8.71535675,4.80212342 8.65952775,4.37157024 8.43770332,4.06098667 Z M10.4095761,2.39215067 C11.0110808,3.17826925 11.1990567,4.15313573 11.22127,6.00981684 L11.3467643,6.00981684 L11.3467643,6.69402737 L10.539898,6.69402737 L10.5393182,6.35250281 C10.5360359,4.41878436 10.3805792,3.48019941 9.86617679,2.80791655 C9.30238065,2.07100821 8.49125301,1.68421053 7.49993392,1.68421053 C6.50861483,1.68421053 5.69748718,2.07100821 5.13370155,2.80790282 C4.61934183,3.48026581 4.46380697,4.41932291 4.46068181,6.35247516 L4.46012965,6.69402737 L3.65323567,6.69402737 C3.31852171,6.69402737 3.05263158,6.94180317 3.05263158,7.23040737 L3.05263158,12.7794095 C3.05263158,13.0680864 3.31846935,13.3157895 3.65323567,13.3157895 L11.3467643,13.3157895 C11.6815306,13.3157895 11.9473684,13.0680864 11.9473684,12.7794095 L11.9473684,7.23040737 C11.9473684,6.94180317 11.6814783,6.69402737 11.3467643,6.69402737 L11.3467643,6.00981684 C12.048991,6.00981684 12.6315789,6.55271473 12.6315789,7.23040737 L12.6315789,12.7794095 C12.6315789,13.4571907 12.0490298,14 11.3467643,14 L3.65323567,14 C2.9509702,14 2.36842105,13.4571907 2.36842105,12.7794095 L2.36842105,7.23040737 C2.36842105,6.55271473 2.95100899,6.00981684 3.65323567,6.00981684 L3.77870518,6.00981684 C3.80079159,4.15366973 3.98884772,3.17834893 4.59028199,2.39216345 C5.28573182,1.48317748 6.29897111,1 7.49993392,1 C8.70089673,1 9.71413602,1.48317748 10.4095761,2.39215067 Z M7.50004155,8.23922858 C8.05059262,8.23922858 8.49688003,8.6551117 8.49688003,9.1681553 C8.49688003,9.50564415 8.30378115,9.80090907 8.01502605,9.96359988 L8.01502605,10.9756124 C8.01502605,11.1641824 7.84953592,11.3185495 7.64717998,11.3185495 L7.35274072,11.3185495 C7.15038479,11.3185495 6.98489466,11.1641824 6.98489466,10.9756124 L6.98489466,9.96359988 C6.69613956,9.80090907 6.50304067,9.50564415 6.50304067,9.1681553 C6.50304067,8.6551117 6.94932808,8.23922858 7.50004155,8.23922858 Z" id="Combined-Shape" fill="#FBFCFC" fill-rule="nonzero"></path>
            </g>
        </g>
    </g>
</svg>