<?xml version="1.0" encoding="UTF-8"?>
<svg width="896px" height="266px" viewBox="0 0 896 266" version="1.1" xmlns="http://www.w3.org/2000/svg" xmlns:xlink="http://www.w3.org/1999/xlink">
    <!-- Generator: Sketch 49.3 (51167) - http://www.bohemiancoding.com/sketch -->
    <title>banner_docs</title>
    <desc>Created with Sketch.</desc>
    <defs></defs>
    <g id="doc-graphic" stroke="none" stroke-width="1" fill="none" fill-rule="evenodd">
        <g id="Docs-with-banner" transform="translate(-544.000000, -50.000000)">
            <g id="Group-2" transform="translate(0.000000, 50.000000)">
                <g id="banner_docs" transform="translate(544.000000, -32.000000)">
                    <g id="banner-/-docs" opacity="0.3" transform="translate(0.000000, 227.000000)">
                        <g id="doc">
                            <polygon id="Rectangle-3" fill="#175D8D" opacity="0.6" points="13.823339 0 117 0 117 117 0 117 0 13.6051856"></polygon>
                            <polygon id="Rectangle-4" fill="#047CC0" opacity="0.3" points="13.8188976 0 13.8188976 13.8188976 0 13.8188976"></polygon>
                        </g>
                    </g>
                    <g id="banner-/-docs" opacity="0.4" transform="translate(83.000000, 198.000000)">
                        <g id="doc">
                            <polygon id="Rectangle-3" fill="#175D8D" opacity="0.6" points="13.823339 0 117 0 117 117 0 117 0 13.6051856"></polygon>
                            <polygon id="Rectangle-4" fill="#047CC0" opacity="0.3" points="13.8188976 0 13.8188976 13.8188976 0 13.8188976"></polygon>
                        </g>
                    </g>
                    <g id="banner-/-docs" opacity="0.5" transform="translate(706.000000, 0.000000)">
                        <g id="doc">
                            <polygon id="Rectangle-3" fill="#175D8D" opacity="0.6" points="13.823339 0 117 0 117 117 0 117 0 13.6051856"></polygon>
                            <polygon id="Rectangle-4" fill="#047CC0" opacity="0.3" points="13.8188976 0 13.8188976 13.8188976 0 13.8188976"></polygon>
                        </g>
                    </g>
                    <g id="banner-/-docs" opacity="0.5" transform="translate(563.000000, 62.000000)">
                        <g id="doc">
                            <polygon id="Rectangle-3" fill="#175D8D" opacity="0.6" points="13.823339 0 117 0 117 117 0 117 0 13.6051856"></polygon>
                            <polygon id="Rectangle-4" fill="#047CC0" opacity="0.3" points="13.8188976 0 13.8188976 13.8188976 0 13.8188976"></polygon>
                        </g>
                    </g>
                    <g id="banner-/-docs" opacity="0.7" transform="translate(622.000000, 40.000000)">
                        <g id="doc">
                            <polygon id="Rectangle-3" fill="#175D8D" opacity="0.6" points="13.823339 0 117 0 117 117 0 117 0 13.6051856"></polygon>
                            <polygon id="Rectangle-4" fill="#047CC0" opacity="0.3" points="13.8188976 0 13.8188976 13.8188976 0 13.8188976"></polygon>
                        </g>
                    </g>
                    <g id="banner-/-docs" opacity="0.8" transform="translate(671.000000, 92.000000)">
                        <g id="doc">
                            <polygon id="Rectangle-3" fill="#175D8D" opacity="0.6" points="22.0937127 0 187 0 187 187 0 187 0 21.7450402"></polygon>
                            <polygon id="Rectangle-4" fill="#047CC0" opacity="0.3" points="22.0866142 0 22.0866142 22.0866142 0 22.0866142"></polygon>
                        </g>
                    </g>
                    <g id="banner-/-docs" opacity="0.7" transform="translate(537.000000, 117.000000)">
                        <g id="doc">
                            <polygon id="Rectangle-3" fill="#175D8D" opacity="0.6" points="13.823339 0 117 0 117 117 0 117 0 13.6051856"></polygon>
                            <polygon id="Rectangle-4" fill="#047CC0" opacity="0.3" points="13.8188976 0 13.8188976 13.8188976 0 13.8188976"></polygon>
                        </g>
                    </g>
                    <g id="banner-/-docs" opacity="0.3" transform="translate(142.000000, 159.000000)">
                        <g id="doc">
                            <polygon id="Rectangle-3" fill="#175D8D" opacity="0.6" points="20.9122308 0 177 0 177 177 0 177 0 20.5822038"></polygon>
                            <polygon id="Rectangle-4" fill="#047CC0" opacity="0.3" points="20.9055118 0 20.9055118 20.9055118 0 20.9055118"></polygon>
                        </g>
                    </g>
                    <g id="banner-/-docs" opacity="0.4" transform="translate(405.000000, 49.000000)">
                        <g id="doc">
                            <polygon id="Rectangle-3" fill="#175D8D" opacity="0.6" points="20.9122308 0 177 0 177 177 0 177 0 20.5822038"></polygon>
                            <polygon id="Rectangle-4" fill="#047CC0" opacity="0.3" points="20.9055118 0 20.9055118 20.9055118 0 20.9055118"></polygon>
                        </g>
                    </g>
                    <g id="banner-/-docs" opacity="0.8" transform="translate(765.000000, 162.000000)">
                        <g id="doc">
                            <polygon id="Rectangle-3" fill="#175D8D" opacity="0.6" points="20.9122308 0 177 0 177 177 0 177 0 20.5822038"></polygon>
                            <polygon id="Rectangle-4" fill="#047CC0" opacity="0.3" points="20.9055118 0 20.9055118 20.9055118 0 20.9055118"></polygon>
                        </g>
                    </g>
                    <g id="banner-/-docs" transform="translate(783.000000, 10.000000)">
                        <g id="doc">
                            <polygon id="Rectangle-3" fill="#175D8D" opacity="0.6" points="20.9122308 0 177 0 177 177 0 177 0 20.5822038"></polygon>
                            <polygon id="Rectangle-4" fill="#047CC0" opacity="0.3" points="20.9055118 0 20.9055118 20.9055118 0 20.9055118"></polygon>
                        </g>
                    </g>
                    <g id="banner-/-docs" opacity="0.5" transform="translate(231.000000, 198.000000)">
                        <g id="doc">
                            <polygon id="Rectangle-3" fill="#175D8D" opacity="0.6" points="20.9122308 0 177 0 177 177 0 177 0 20.5822038"></polygon>
                            <polygon id="Rectangle-4" fill="#047CC0" opacity="0.3" points="20.9055118 0 20.9055118 20.9055118 0 20.9055118"></polygon>
                        </g>
                    </g>
                    <g id="banner-/-docs" opacity="0.3" transform="translate(281.000000, 92.000000)">
                        <g id="doc">
                            <polygon id="Rectangle-3" fill="#175D8D" opacity="0.6" points="29.1826045 0 247 0 247 247 0 247 0 28.7220584"></polygon>
                            <polygon id="Rectangle-4" fill="#047CC0" opacity="0.3" points="29.1732283 0 29.1732283 29.1732283 0 29.1732283"></polygon>
                        </g>
                    </g>
                    <g id="banner-/-docs" transform="translate(582.000000, 140.000000)">
                        <g id="doc">
                            <polygon id="Rectangle-3" fill="#175D8D" opacity="0.6" points="29.1826045 0 247 0 247 247 0 247 0 28.7220584"></polygon>
                            <polygon id="Rectangle-4" fill="#047CC0" opacity="0.3" points="29.1732283 0 29.1732283 29.1732283 0 29.1732283"></polygon>
                        </g>
                    </g>
                    <g id="banner-/-docs" opacity="0.7" transform="translate(448.000000, 175.000000)">
                        <g id="doc">
                            <polygon id="Rectangle-3" fill="#175D8D" opacity="0.6" points="20.9122308 0 177 0 177 177 0 177 0 20.5822038"></polygon>
                            <polygon id="Rectangle-4" fill="#047CC0" opacity="0.3" points="20.9055118 0 20.9055118 20.9055118 0 20.9055118"></polygon>
                        </g>
                    </g>
                </g>
            </g>
        </g>
    </g>
</svg>